<svg width="19" height="20" viewBox="0 0 19 20" fill="none" xmlns="http://www.w3.org/2000/svg">
<path d="M17.3566 9.92885C15.834 6.23547 12.9696 3.94385 9.87918 3.94385C6.78873 3.94385 3.92441 6.23547 2.4018 9.92885C2.36029 10.0282 2.33887 10.1354 2.33887 10.2438C2.33887 10.3523 2.36029 10.4595 2.4018 10.5588C3.92441 14.2522 6.78873 16.5438 9.87918 16.5438C12.9696 16.5438 15.834 14.2522 17.3566 10.5588C17.3981 10.4595 17.4195 10.3523 17.4195 10.2438C17.4195 10.1354 17.3981 10.0282 17.3566 9.92885ZM9.87918 14.9688C7.48974 14.9688 5.22843 13.1655 3.92441 10.2438C5.22843 7.32222 7.48974 5.51885 9.87918 5.51885C12.2686 5.51885 14.5299 7.32222 15.834 10.2438C14.5299 13.1655 12.2686 14.9688 9.87918 14.9688ZM9.87918 7.09385C9.28286 7.09385 8.69992 7.27859 8.2041 7.62472C7.70827 7.97084 7.32182 8.46281 7.09362 9.03839C6.86541 9.61398 6.8057 10.2473 6.92204 10.8584C7.03838 11.4694 7.32554 12.0307 7.7472 12.4712C8.16887 12.9118 8.7061 13.2118 9.29097 13.3333C9.87584 13.4549 10.4821 13.3925 11.033 13.1541C11.5839 12.9157 12.0548 12.5119 12.3861 11.9939C12.7174 11.4759 12.8943 10.8669 12.8943 10.2438C12.8943 9.40842 12.5766 8.6072 12.0112 8.01646C11.4457 7.42572 10.6788 7.09385 9.87918 7.09385ZM9.87918 11.8188C9.58102 11.8188 9.28955 11.7265 9.04164 11.5534C8.79373 11.3803 8.6005 11.1344 8.4864 10.8466C8.3723 10.5588 8.34244 10.2421 8.40061 9.93658C8.45878 9.63106 8.60236 9.35042 8.81319 9.13015C9.02403 8.90989 9.29264 8.75988 9.58508 8.69911C9.87751 8.63834 10.1806 8.66953 10.4561 8.78874C10.7316 8.90795 10.967 9.10982 11.1327 9.36882C11.2983 9.62783 11.3867 9.93234 11.3867 10.2438C11.3867 10.6616 11.2279 11.0622 10.9452 11.3575C10.6625 11.6529 10.279 11.8188 9.87918 11.8188Z" fill="#7A797D"/>
</svg>
