<svg width="21" height="21" viewBox="0 0 21 21" fill="none" xmlns="http://www.w3.org/2000/svg">
<path fill-rule="evenodd" clip-rule="evenodd" d="M4.66699 3.83317C4.20675 3.83317 3.83366 4.20627 3.83366 4.6665V16.3332C3.83366 16.7934 4.20675 17.1665 4.66699 17.1665H16.3337C16.7939 17.1665 17.167 16.7934 17.167 16.3332V4.6665C17.167 4.20627 16.7939 3.83317 16.3337 3.83317H4.66699ZM2.16699 4.6665C2.16699 3.28579 3.28628 2.1665 4.66699 2.1665H16.3337C17.7144 2.1665 18.8337 3.28579 18.8337 4.6665V16.3332C18.8337 17.7139 17.7144 18.8332 16.3337 18.8332H4.66699C3.28628 18.8332 2.16699 17.7139 2.16699 16.3332V4.6665Z" fill="#1565D8"/>
</svg>
