<svg width="21" height="21" viewBox="0 0 21 21" fill="none" xmlns="http://www.w3.org/2000/svg">
<path fill-rule="evenodd" clip-rule="evenodd" d="M2.16699 4.6665C2.16699 3.28579 3.28628 2.1665 4.66699 2.1665H16.3337C17.7144 2.1665 18.8337 3.28579 18.8337 4.6665V16.3332C18.8337 17.7139 17.7144 18.8332 16.3337 18.8332H4.66699C3.28628 18.8332 2.16699 17.7139 2.16699 16.3332V4.6665Z" fill="#1565D8"/>
<path fill-rule="evenodd" clip-rule="evenodd" d="M14.5952 7.41064C14.9206 7.73608 14.9206 8.26372 14.5952 8.58916L9.42259 14.0058C9.09715 14.3313 8.56951 14.3313 8.24408 14.0058L5.74408 11.5058C5.41864 11.1804 5.41864 10.6527 5.74408 10.3273C6.06951 10.0019 6.59715 10.0019 6.92259 10.3273L8.83333 12.2381L13.4167 7.41064C13.7421 7.08521 14.2697 7.08521 14.5952 7.41064Z" fill="white"/>
</svg>
